<?xml version="1.0" encoding="UTF-8"?>
<svg xmlns="http://www.w3.org/2000/svg" xmlns:xlink="http://www.w3.org/1999/xlink" width="612pt" height="792pt" viewBox="0 0 612 792" version="1.2">
  <style>
    /* Override fill colours from the source AI. All path elements adopt the site accent colour. */
    path {
      fill: #c0b5a9 !important;
    }
  </style>
<g id="surface1">
<path style=" stroke:none;fill-rule:evenodd;fill:rgb(58.824158%,64.31427%,70.588684%);fill-opacity:1;" d="M 215.382812 310.597656 C 205.292969 328.65625 201.375 353.414062 205.292969 374.335938 C 208.167969 389.6875 208.132812 389.640625 214.402344 385.765625 C 216.679688 384.359375 218.070312 382.511719 218.746094 379.996094 C 219.660156 376.605469 220.390625 305.097656 219.519531 304.230469 C 219.316406 304.027344 217.457031 306.890625 215.382812 310.597656 M 272.792969 176.355469 C 267.566406 178.238281 257.777344 182.132812 251.042969 185.011719 L 238.792969 190.246094 L 238.792969 235.539062 C 238.792969 260.453125 239 280.835938 239.257812 280.835938 C 239.511719 280.835938 242.550781 279.285156 246.007812 277.394531 C 255.625 272.132812 272.792969 267.925781 272.792969 270.835938 C 272.792969 271.382812 271.644531 271.835938 270.246094 271.835938 C 265.125 271.835938 254.980469 275.085938 247.234375 279.210938 L 239.292969 283.441406 L 239.03125 330.714844 C 238.800781 372.863281 238.949219 378.367188 240.417969 381.457031 C 242.027344 384.847656 246.15625 387.835938 249.242188 387.835938 C 250.09375 387.835938 250.792969 388.507812 250.792969 389.335938 C 250.792969 390.621094 247.839844 390.835938 230.222656 390.835938 L 209.65625 390.835938 L 210.328125 393.085938 C 210.695312 394.324219 212.945312 399.042969 215.332031 403.578125 C 229.460938 430.453125 256.394531 450.476562 288.984375 458.328125 C 325.09375 467.03125 364.515625 461.234375 391.894531 443.195312 C 429.566406 418.378906 445.441406 373.128906 433.285156 325.207031 C 426.183594 297.21875 408.507812 275.648438 384.527344 265.710938 C 369.167969 259.34375 364.097656 258.609375 332.042969 258.097656 L 302.792969 257.632812 L 302.796875 315.484375 C 302.800781 354.023438 303.164062 374.667969 303.890625 377.335938 C 305.21875 382.222656 309.09375 386.523438 312.933594 387.367188 C 314.503906 387.710938 315.792969 388.40625 315.792969 388.914062 C 315.792969 389.445312 306.523438 389.835938 293.792969 389.835938 C 273.371094 389.835938 267.113281 389.019531 274.710938 387.351562 C 278.808594 386.453125 282.441406 382.757812 283.707031 378.207031 C 285.371094 372.207031 285.210938 172.816406 283.542969 172.882812 C 282.855469 172.910156 278.015625 174.472656 272.792969 176.355469 M 334.292969 159.464844 C 326.601562 160.667969 315.703125 162.9375 309.792969 164.570312 L 303.292969 166.363281 L 302.769531 256.097656 L 329.53125 255.53125 C 359.113281 254.902344 368.960938 253.527344 383.09375 248.035156 C 407.039062 238.738281 419.398438 220.804688 415.761719 200.636719 C 412.5 182.546875 397.355469 168.5625 373.722656 161.824219 C 368.113281 160.222656 362.734375 159.617188 351.792969 159.347656 C 343.816406 159.15625 335.941406 159.207031 334.292969 159.464844 M 325.292969 154.90625 C 309.394531 157.09375 300.453125 159.789062 241.503906 180.179688 C 208.257812 191.679688 188.789062 195.171875 157.792969 195.191406 C 139.75 195.203125 137.542969 195.003906 128.300781 192.515625 C 107.640625 186.957031 91.449219 176.671875 81.042969 162.496094 C 79.035156 159.761719 77.222656 158.046875 77.007812 158.679688 C 76.046875 161.570312 90.3125 177.039062 100.117188 183.738281 C 107.910156 189.0625 120.492188 194.441406 132.292969 197.492188 C 142.902344 200.234375 144.136719 200.332031 167.292969 200.316406 C 187.925781 200.304688 193.09375 199.976562 204.152344 197.992188 C 211.226562 196.722656 217.640625 195.445312 218.402344 195.152344 C 219.578125 194.703125 219.789062 202.71875 219.761719 246.976562 L 219.734375 299.335938 L 215.742188 305.335938 C 213.546875 308.632812 210.402344 314.828125 208.753906 319.097656 C 203.371094 333.03125 202.382812 338.847656 202.335938 356.835938 C 202.296875 371.082031 202.613281 374.554688 204.652344 382.277344 C 213.746094 416.6875 239.824219 443.933594 275.792969 456.597656 C 317.222656 471.191406 377.113281 464.613281 412.453125 441.589844 C 435.789062 426.386719 450.097656 405.578125 455.953125 378.335938 C 457.65625 370.394531 457.632812 344.09375 455.910156 336.335938 C 449.210938 306.136719 431.316406 283.082031 403.953125 269.390625 C 394.914062 264.871094 378.089844 259.179688 371.042969 258.261719 C 368.152344 257.882812 365.792969 257.246094 365.792969 256.84375 C 365.792969 256.441406 367.996094 255.851562 370.6875 255.535156 C 377.328125 254.746094 389.59375 250.570312 399.359375 245.769531 C 410.328125 240.378906 417.847656 233.5 422 225.058594 C 425.023438 218.910156 425.289062 217.601562 425.285156 208.851562 C 425.277344 200.179688 424.984375 198.714844 421.996094 192.390625 C 417.941406 183.808594 413.386719 178.160156 405.988281 172.546875 C 394.808594 164.058594 383.535156 158.90625 370.292969 156.242188 C 361.378906 154.449219 334.433594 153.648438 325.292969 154.90625 "/>
<path style=" stroke:none;fill-rule:nonzero;fill:rgb(56.079102%,61.177063%,65.882874%);fill-opacity:1;" d="M 411.679688 549.835938 L 413.300781 521.875 L 416.300781 521.875 L 415.519531 549.835938 Z M 439.398438 549.835938 L 438.082031 523.734375 L 439.339844 523.253906 L 428.71875 548.695312 L 426.441406 548.695312 L 414.738281 523.074219 L 415.699219 521.875 L 418.039062 521.875 L 428.660156 544.554688 L 426.859375 544.554688 L 437.058594 521.875 L 441.679688 521.875 L 443.539062 549.835938 Z M 382.148438 540.054688 L 383.171875 537.054688 L 396.851562 537.054688 L 398.351562 540.054688 Z M 376.148438 549.835938 L 388.03125 521.875 L 392.832031 521.875 L 404.769531 549.835938 L 400.449219 549.835938 L 389.710938 523.554688 L 390.910156 523.554688 L 380.46875 549.835938 Z M 348.671875 527.695312 L 357.3125 527.695312 C 359.511719 527.695312 361.292969 527.054688 362.652344 525.773438 C 364.050781 524.453125 364.75 522.734375 364.75 520.613281 C 364.75 518.574219 364.070312 516.894531 362.710938 515.574219 C 361.390625 514.253906 359.210938 513.59375 356.171875 513.59375 L 350.109375 513.59375 L 350.109375 546.59375 L 357.792969 546.59375 C 360.75 546.59375 363.03125 545.875 364.632812 544.433594 C 366.230469 542.996094 367.03125 541.074219 367.03125 538.675781 C 367.03125 536.234375 366.152344 534.316406 364.390625 532.914062 C 362.671875 531.515625 360.070312 530.816406 356.589844 530.816406 L 348.671875 530.816406 Z M 356.890625 530.515625 L 357.550781 527.996094 C 360.3125 527.996094 362.730469 528.433594 364.8125 529.316406 C 366.890625 530.195312 368.511719 531.433594 369.671875 533.035156 C 370.832031 534.59375 371.410156 536.476562 371.410156 538.675781 C 371.410156 540.875 370.832031 542.816406 369.671875 544.496094 C 368.511719 546.132812 366.851562 547.433594 364.691406 548.394531 C 362.570312 549.355469 360.050781 549.835938 357.132812 549.835938 L 345.910156 549.835938 L 345.910156 510.355469 L 356.890625 510.355469 C 359.371094 510.355469 361.492188 510.734375 363.25 511.496094 C 365.011719 512.253906 366.371094 513.355469 367.332031 514.792969 C 368.332031 516.195312 368.832031 517.875 368.832031 519.835938 C 368.832031 521.316406 368.53125 522.714844 367.929688 524.035156 C 367.332031 525.316406 366.492188 526.453125 365.410156 527.453125 C 364.332031 528.414062 363.070312 529.175781 361.632812 529.734375 C 360.191406 530.253906 358.609375 530.515625 356.890625 530.515625 M 288.882812 545.515625 C 291.722656 547.675781 294.945312 548.753906 298.542969 548.753906 C 302.023438 548.753906 305.304688 547.792969 308.382812 545.875 C 302.824219 541.234375 298.324219 537.414062 294.882812 534.414062 C 291.445312 531.414062 288.902344 528.855469 287.265625 526.734375 C 284.863281 528.976562 283.664062 532.015625 283.664062 535.855469 C 283.664062 539.695312 285.402344 542.914062 288.882812 545.515625 M 344.144531 554.035156 C 340.625 557.074219 336.722656 558.59375 332.445312 558.59375 C 329.402344 558.59375 326.105469 557.773438 322.542969 556.132812 C 320.382812 555.09375 318.382812 553.855469 316.542969 552.414062 C 314.703125 551.015625 312.445312 549.214844 309.765625 547.015625 C 306.125 549.414062 302.023438 550.613281 297.464844 550.613281 C 295.183594 550.613281 292.945312 550.292969 290.746094 549.65625 C 287.542969 548.773438 284.863281 547.214844 282.703125 544.976562 C 280.464844 542.65625 279.34375 539.835938 279.34375 536.515625 C 279.34375 533.953125 279.945312 531.734375 281.144531 529.855469 C 282.382812 527.933594 284.085938 526.414062 286.246094 525.292969 C 284.523438 522.65625 283.664062 519.914062 283.664062 517.074219 C 283.664062 514.195312 284.664062 511.792969 286.664062 509.875 C 288.664062 507.953125 291.464844 506.996094 295.0625 506.996094 C 299.625 506.996094 303.164062 508.414062 305.683594 511.253906 L 304.84375 518.035156 L 304.246094 518.035156 C 304.125 515.195312 303.265625 512.953125 301.664062 511.316406 C 300.0625 509.632812 298.042969 508.792969 295.605469 508.792969 C 293.164062 508.792969 291.246094 509.574219 289.84375 511.132812 C 288.445312 512.65625 287.746094 514.554688 287.746094 516.835938 C 287.746094 519.394531 288.542969 521.753906 290.144531 523.914062 C 291.785156 526.074219 294.464844 528.773438 298.183594 532.015625 C 301.945312 535.253906 306.402344 539.054688 311.5625 543.414062 C 313.722656 541.453125 315.503906 539.132812 316.902344 536.453125 C 318.824219 532.894531 319.785156 529.015625 319.785156 524.816406 C 319.785156 522.816406 319.542969 520.835938 319.0625 518.875 C 318.34375 515.875 316.785156 512.953125 314.382812 510.113281 C 311.984375 507.273438 308.863281 504.855469 305.023438 502.855469 L 305.324219 502.496094 C 308.683594 503.855469 311.542969 505.613281 313.902344 507.773438 C 318.945312 512.375 321.464844 518.195312 321.464844 525.234375 C 321.464844 529.632812 320.285156 533.953125 317.925781 538.195312 C 316.5625 540.59375 314.902344 542.714844 312.945312 544.554688 L 316.785156 547.675781 C 320.863281 550.953125 324.945312 553.292969 329.023438 554.695312 C 330.902344 555.335938 333.105469 555.65625 335.625 555.65625 C 338.144531 555.65625 340.882812 554.933594 343.84375 553.496094 Z M 256.925781 550.253906 C 255.644531 550.253906 254.566406 550.015625 253.683594 549.535156 C 252.84375 549.054688 252.046875 548.335938 251.285156 547.375 C 250.566406 546.414062 249.765625 545.214844 248.886719 543.773438 L 244.984375 537.476562 L 248.285156 536.273438 L 252.246094 542.273438 C 253.125 543.554688 253.863281 544.574219 254.464844 545.335938 C 255.066406 546.09375 255.625 546.65625 256.144531 547.015625 C 256.707031 547.375 257.363281 547.554688 258.125 547.554688 C 258.40625 547.554688 258.664062 547.535156 258.90625 547.496094 C 259.183594 547.453125 259.445312 547.414062 259.683594 547.375 L 260.164062 549.773438 C 259.566406 549.933594 259.003906 550.054688 258.484375 550.132812 C 257.964844 550.214844 257.445312 550.253906 256.925781 550.253906 M 235.085938 549.835938 L 235.085938 521.875 L 244.925781 521.875 C 248.125 521.875 250.605469 522.515625 252.363281 523.792969 C 254.125 525.035156 255.003906 526.894531 255.003906 529.375 C 255.003906 531.09375 254.546875 532.632812 253.625 533.996094 C 252.746094 535.316406 251.445312 536.355469 249.726562 537.113281 C 248.046875 537.835938 246.003906 538.195312 243.605469 538.195312 L 237.125 538.195312 L 237.125 535.253906 L 244.265625 535.253906 C 246.425781 535.253906 248.105469 534.753906 249.304688 533.753906 C 250.503906 532.714844 251.105469 531.414062 251.105469 529.855469 C 251.105469 528.335938 250.546875 527.175781 249.425781 526.375 C 248.304688 525.535156 246.683594 525.113281 244.566406 525.113281 L 238.984375 525.113281 L 238.984375 549.835938 Z M 205.257812 540.054688 L 206.277344 537.054688 L 219.957031 537.054688 L 221.457031 540.054688 Z M 199.257812 549.835938 L 211.136719 521.875 L 215.9375 521.875 L 227.875 549.835938 L 223.554688 549.835938 L 212.816406 523.554688 L 214.015625 523.554688 L 203.578125 549.835938 Z M 167.4375 510.355469 L 201.875 510.355469 L 201.875 513.894531 L 167.4375 513.894531 Z M 182.375 510.355469 L 186.9375 510.355469 L 186.9375 549.835938 L 182.375 549.835938 Z M 182.375 510.355469 "/>
<path style=" stroke:none;fill-rule:nonzero;fill:rgb(56.079102%,61.177063%,65.882874%);fill-opacity:1;" d="M 452.691406 629.835938 C 454.773438 629.835938 456.613281 629.375 458.210938 628.453125 C 459.851562 627.496094 461.132812 626.195312 462.050781 624.554688 C 462.972656 622.875 463.433594 620.976562 463.433594 618.855469 C 463.433594 616.773438 462.972656 614.914062 462.050781 613.273438 C 461.171875 611.59375 459.933594 610.273438 458.332031 609.316406 C 456.730469 608.355469 454.890625 607.875 452.8125 607.875 C 450.8125 607.875 448.992188 608.355469 447.351562 609.316406 C 445.710938 610.234375 444.414062 611.515625 443.453125 613.15625 C 442.492188 614.792969 442.011719 616.675781 442.011719 618.792969 C 442.011719 620.875 442.472656 622.753906 443.390625 624.433594 C 444.3125 626.113281 445.570312 627.433594 447.171875 628.394531 C 448.8125 629.355469 450.652344 629.835938 452.691406 629.835938 M 452.691406 633.132812 C 449.851562 633.132812 447.332031 632.515625 445.132812 631.273438 C 442.933594 630.035156 441.191406 628.335938 439.914062 626.175781 C 438.671875 624.015625 438.050781 621.574219 438.050781 618.855469 C 438.050781 616.09375 438.691406 613.65625 439.972656 611.535156 C 441.253906 609.375 443.011719 607.675781 445.253906 606.433594 C 447.492188 605.195312 450.011719 604.574219 452.8125 604.574219 C 455.652344 604.574219 458.171875 605.195312 460.371094 606.433594 C 462.570312 607.675781 464.3125 609.375 465.59375 611.535156 C 466.871094 613.65625 467.511719 616.074219 467.511719 618.792969 C 467.511719 621.554688 466.851562 624.015625 465.53125 626.175781 C 464.253906 628.335938 462.492188 630.035156 460.253906 631.273438 C 458.050781 632.515625 455.53125 633.132812 452.691406 633.132812 M 409.523438 630.675781 C 413.285156 628.113281 416.363281 625.855469 418.765625 623.894531 C 421.203125 621.933594 423.003906 620.132812 424.164062 618.496094 C 425.363281 616.816406 425.964844 615.195312 425.964844 613.632812 C 425.964844 612.113281 425.425781 610.816406 424.34375 609.734375 C 423.265625 608.65625 421.664062 608.113281 419.542969 608.113281 C 418.0625 608.113281 416.5625 608.496094 415.042969 609.253906 C 413.523438 610.015625 412.265625 611.273438 411.265625 613.035156 L 409.164062 611.113281 C 410.523438 608.835938 412.203125 607.175781 414.203125 606.132812 C 416.203125 605.09375 418.324219 604.574219 420.5625 604.574219 C 422.722656 604.574219 424.503906 604.976562 425.902344 605.773438 C 427.304688 606.574219 428.34375 607.613281 429.023438 608.894531 C 429.703125 610.175781 430.042969 611.496094 430.042969 612.855469 C 430.042969 614.335938 429.664062 615.816406 428.902344 617.292969 C 428.183594 618.734375 427.105469 620.195312 425.664062 621.675781 C 424.265625 623.15625 422.585938 624.65625 420.625 626.175781 C 418.703125 627.695312 416.542969 629.253906 414.144531 630.855469 L 414.324219 629.355469 L 434.246094 629.355469 L 434.246094 632.835938 L 410.246094 632.835938 Z M 336.398438 630.675781 C 340.160156 628.113281 343.238281 625.855469 345.640625 623.894531 C 348.078125 621.933594 349.878906 620.132812 351.039062 618.496094 C 352.238281 616.816406 352.839844 615.195312 352.839844 613.632812 C 352.839844 612.113281 352.300781 610.816406 351.21875 609.734375 C 350.140625 608.65625 348.539062 608.113281 346.417969 608.113281 C 344.9375 608.113281 343.4375 608.496094 341.917969 609.253906 C 340.398438 610.015625 339.140625 611.273438 338.140625 613.035156 L 336.039062 611.113281 C 337.398438 608.835938 339.078125 607.175781 341.078125 606.132812 C 343.078125 605.09375 345.199219 604.574219 347.4375 604.574219 C 349.597656 604.574219 351.378906 604.976562 352.777344 605.773438 C 354.179688 606.574219 355.21875 607.613281 355.898438 608.894531 C 356.578125 610.175781 356.917969 611.496094 356.917969 612.855469 C 356.917969 614.335938 356.539062 615.816406 355.777344 617.292969 C 355.058594 618.734375 353.980469 620.195312 352.539062 621.675781 C 351.140625 623.15625 349.460938 624.65625 347.5 626.175781 C 345.578125 627.695312 343.417969 629.253906 341.019531 630.855469 L 341.199219 629.355469 L 361.121094 629.355469 L 361.121094 632.835938 L 337.121094 632.835938 Z M 321.242188 632.835938 L 321.242188 608.355469 L 324.363281 608.234375 L 312.363281 616.15625 L 310.503906 612.976562 L 323.28125 604.875 L 325.382812 604.875 L 325.382812 632.835938 Z M 242.644531 615.976562 C 245.804688 616.015625 248.484375 616.292969 250.6875 616.816406 C 252.925781 617.335938 254.726562 618.074219 256.085938 619.035156 C 257.445312 619.953125 258.425781 621.054688 259.027344 622.335938 C 259.667969 623.613281 259.984375 625.015625 259.984375 626.535156 C 259.984375 628.414062 259.566406 630.132812 258.726562 631.695312 C 257.925781 633.253906 256.746094 634.65625 255.1875 635.894531 C 253.625 637.175781 251.726562 638.273438 249.484375 639.195312 C 247.285156 640.113281 244.765625 640.875 241.925781 641.476562 L 241.027344 638.65625 C 245.984375 637.375 249.707031 635.773438 252.1875 633.855469 C 254.707031 631.933594 255.964844 629.695312 255.964844 627.132812 C 255.964844 624.414062 254.746094 622.433594 252.304688 621.195312 C 249.90625 619.953125 246.207031 619.355469 241.207031 619.394531 L 242.707031 605.113281 L 259.867188 604.273438 L 259.566406 607.933594 L 244.027344 608.476562 L 245.644531 606.675781 L 244.566406 617.175781 Z M 211.417969 630.675781 C 215.179688 628.113281 218.257812 625.855469 220.65625 623.894531 C 223.097656 621.933594 224.898438 620.132812 226.058594 618.496094 C 227.257812 616.816406 227.859375 615.195312 227.859375 613.632812 C 227.859375 612.113281 227.316406 610.816406 226.238281 609.734375 C 225.15625 608.65625 223.558594 608.113281 221.4375 608.113281 C 219.957031 608.113281 218.457031 608.496094 216.9375 609.253906 C 215.417969 610.015625 214.15625 611.273438 213.15625 613.035156 L 211.058594 611.113281 C 212.417969 608.835938 214.097656 607.175781 216.097656 606.132812 C 218.097656 605.09375 220.21875 604.574219 222.457031 604.574219 C 224.617188 604.574219 226.398438 604.976562 227.796875 605.773438 C 229.199219 606.574219 230.238281 607.613281 230.917969 608.894531 C 231.597656 610.175781 231.9375 611.496094 231.9375 612.855469 C 231.9375 614.335938 231.558594 615.816406 230.796875 617.292969 C 230.078125 618.734375 229 620.195312 227.558594 621.675781 C 226.15625 623.15625 224.476562 624.65625 222.519531 626.175781 C 220.597656 627.695312 218.4375 629.253906 216.039062 630.855469 L 216.21875 629.355469 L 236.136719 629.355469 L 236.136719 632.835938 L 212.136719 632.835938 Z M 190.542969 629.835938 C 192.625 629.835938 194.464844 629.375 196.0625 628.453125 C 197.703125 627.496094 198.984375 626.195312 199.902344 624.554688 C 200.824219 622.875 201.28125 620.976562 201.28125 618.855469 C 201.28125 616.773438 200.824219 614.914062 199.902344 613.273438 C 199.023438 611.59375 197.78125 610.273438 196.183594 609.316406 C 194.582031 608.355469 192.742188 607.875 190.664062 607.875 C 188.664062 607.875 186.84375 608.355469 185.203125 609.316406 C 183.5625 610.234375 182.261719 611.515625 181.304688 613.15625 C 180.34375 614.792969 179.863281 616.675781 179.863281 618.792969 C 179.863281 620.875 180.324219 622.753906 181.242188 624.433594 C 182.164062 626.113281 183.421875 627.433594 185.023438 628.394531 C 186.664062 629.355469 188.503906 629.835938 190.542969 629.835938 M 190.542969 633.132812 C 187.703125 633.132812 185.183594 632.515625 182.984375 631.273438 C 180.78125 630.035156 179.042969 628.335938 177.761719 626.175781 C 176.523438 624.015625 175.902344 621.574219 175.902344 618.855469 C 175.902344 616.09375 176.542969 613.65625 177.824219 611.535156 C 179.101562 609.375 180.863281 607.675781 183.101562 606.433594 C 185.34375 605.195312 187.863281 604.574219 190.664062 604.574219 C 193.503906 604.574219 196.023438 605.195312 198.222656 606.433594 C 200.421875 607.675781 202.164062 609.375 203.441406 611.535156 C 204.722656 613.65625 205.363281 616.074219 205.363281 618.792969 C 205.363281 621.554688 204.703125 624.015625 203.382812 626.175781 C 202.101562 628.335938 200.34375 630.035156 198.101562 631.273438 C 195.902344 632.515625 193.382812 633.132812 190.542969 633.132812 M 147.375 630.675781 C 151.136719 628.113281 154.214844 625.855469 156.613281 623.894531 C 159.054688 621.933594 160.855469 620.132812 162.015625 618.496094 C 163.214844 616.816406 163.816406 615.195312 163.816406 613.632812 C 163.816406 612.113281 163.273438 610.816406 162.195312 609.734375 C 161.113281 608.65625 159.515625 608.113281 157.394531 608.113281 C 155.914062 608.113281 154.414062 608.496094 152.894531 609.253906 C 151.375 610.015625 150.113281 611.273438 149.113281 613.035156 L 147.015625 611.113281 C 148.375 608.835938 150.054688 607.175781 152.054688 606.132812 C 154.054688 605.09375 156.175781 604.574219 158.414062 604.574219 C 160.574219 604.574219 162.355469 604.976562 163.753906 605.773438 C 165.15625 606.574219 166.195312 607.613281 166.875 608.894531 C 167.554688 610.175781 167.894531 611.496094 167.894531 612.855469 C 167.894531 614.335938 167.515625 615.816406 166.753906 617.292969 C 166.035156 618.734375 164.957031 620.195312 163.515625 621.675781 C 162.113281 623.15625 160.433594 624.65625 158.476562 626.175781 C 156.554688 627.695312 154.394531 629.253906 151.996094 630.855469 L 152.175781 629.355469 L 172.09375 629.355469 L 172.09375 632.835938 L 148.09375 632.835938 Z M 147.375 630.675781 "/>
<path style=" stroke:none;fill-rule:nonzero;fill:rgb(56.079102%,61.177063%,65.882874%);fill-opacity:1;" d="M 285.792969 617.835938 C 287.449219 617.835938 288.792969 619.175781 288.792969 620.835938 C 288.792969 622.492188 287.449219 623.835938 285.792969 623.835938 C 284.132812 623.835938 282.792969 622.492188 282.792969 620.835938 C 282.792969 619.175781 284.132812 617.835938 285.792969 617.835938 "/>
<path style=" stroke:none;fill-rule:nonzero;fill:rgb(56.079102%,61.177063%,65.882874%);fill-opacity:1;" d="M 387.792969 617.835938 C 389.449219 617.835938 390.792969 619.175781 390.792969 620.835938 C 390.792969 622.492188 389.449219 623.835938 387.792969 623.835938 C 386.132812 623.835938 384.792969 622.492188 384.792969 620.835938 C 384.792969 619.175781 386.132812 617.835938 387.792969 617.835938 "/>
</g>
</svg>
